<svg id="Group_9678" data-name="Group 9678" xmlns="http://www.w3.org/2000/svg" xmlns:xlink="http://www.w3.org/1999/xlink" width="254.297" height="139.751" viewBox="0 0 254.297 139.751">
  <defs>
    <clipPath id="clip-path">
      <rect id="Rectangle_6298" data-name="Rectangle 6298" width="254.297" height="139.751" fill="none"/>
    </clipPath>
  </defs>
  <g id="Group_9677" data-name="Group 9677" clip-path="url(#clip-path)">
    <path id="Path_11657" data-name="Path 11657" d="M28.46,30.826C42.981,14.317,60.677,3.413,82.757.633c18.9-2.38,36.024,1.8,50.278,15.062,8.252,7.677,13.315,17.2,15.822,28.487-4.889,0-9.5-.075-14.1.038-1.748.043-1.992-1-2.421-2.252-6.647-19.377-20.345-30.513-40.315-34.047-13.756-2.434-26.781.361-39.414,5.922C43.363,17.91,35.742,24.128,28.46,30.826" fill="#fafcff"/>
    <path id="Path_11658" data-name="Path 11658" d="M123.009,115.913c-26.217,26.983-76.7,35.419-103.1,2.123,1.479-.583,2.382.394,3.227,1.1,19.634,16.568,41.273,16.657,63.973,7.777a68.844,68.844,0,0,0,16.429-9.475,7.158,7.158,0,0,1,4.754-1.563c4.8.1,9.594.033,14.711.033" fill="#fafcff"/>
    <path id="Path_11659" data-name="Path 11659" d="M119.694,29.412C97.866,9.958,68.094,15.864,48.6,31.687a49.913,49.913,0,0,0-9.758,9.762,6.145,6.145,0,0,1-6.151,2.821c-2.062-.178-4.152,0-6.229-.042-.759-.015-1.764.374-2.2-.473s.455-1.454.914-2.073A72.837,72.837,0,0,1,42.1,24.971C57.842,14.06,75,8.936,94.139,13.171a42.152,42.152,0,0,1,25.554,16.237" fill="#ffab3c"/>
    <path id="Path_11660" data-name="Path 11660" d="M97.444,116.04c-20.072,15.351-53.441,16.531-69.72-.328,7.373.859,14.076-.886,20.986,2.475,13.9,6.763,28.22,5.4,42.29-.31,1.861-.755,3.575-2.1,6.443-1.837" fill="#ffab3c"/>
    <path id="Path_11661" data-name="Path 11661" d="M0,109.646c0,.96,1.645,1.739,3.679,1.739H238.907c2.034,0,3.679-.779,3.679-1.739s-1.645-1.739-3.679-1.739H3.681c-2.034,0-3.679.779-3.679,1.739" fill="#fff"/>
    <path id="Path_11662" data-name="Path 11662" d="M240.918,96.853a12.8,12.8,0,1,1-12.8-12.8h.008a12.8,12.8,0,0,1,12.792,12.8" fill="#fff"/>
    <path id="Path_11663" data-name="Path 11663" d="M234.074,96.851a5.949,5.949,0,1,1-5.952-5.951,5.948,5.948,0,0,1,5.952,5.951" fill="#ffab3c"/>
    <path id="Path_11664" data-name="Path 11664" d="M230.946,96.852a2.822,2.822,0,1,1-2.822-2.822h0a2.821,2.821,0,0,1,2.82,2.822" fill="#fff"/>
    <path id="Path_11665" data-name="Path 11665" d="M236.081,96.852a7.958,7.958,0,1,1-7.956-7.96A7.958,7.958,0,0,1,236.081,96.852Z" fill="none" stroke="#ffab3c" stroke-linecap="round" stroke-linejoin="round" stroke-width="1"/>
    <path id="Path_11666" data-name="Path 11666" d="M142.579,85.019h12.832V44.758a11.914,11.914,0,0,1,11.914-11.912h9.306a11.759,11.759,0,0,1,3.146.473V26.866a2.881,2.881,0,0,0-2.688-3.061,2.716,2.716,0,0,0-.372,0,1.84,1.84,0,0,1-1.843-1.839v0a1.841,1.841,0,0,1,1.838-1.844h0a6.561,6.561,0,0,1,6.75,6.365c0,.127,0,.255,0,.382v8.159a11.867,11.867,0,0,1,4.938,8.324,11.823,11.823,0,0,1,3.324-.53h9.31a11.915,11.915,0,0,1,11.909,11.913v7.674h23.584a11.917,11.917,0,0,1,11.916,11.913v9.306a12.056,12.056,0,0,1-.319,2.65h2.536a3.632,3.632,0,0,1,3.632,3.632v8.246a3.631,3.631,0,0,1-3.632,3.63h-8.7a14.765,14.765,0,0,0,.9-4.931A14.953,14.953,0,0,0,227.912,81.9h0a14.957,14.957,0,0,0-14.961,14.951v0a14.815,14.815,0,0,0,.9,4.931H187.411v.017H147L.666,100.975c.548-1.556,141.913-2.38,141.913-4.122m58.65-33.734h8.216L204.4,46.306h-3.173Zm-12.518,0h11.208V46.305H188.71Zm-20.738,16.44h14.759V76H167.973Zm0-7.472h14.759V46.305H167.973Z" fill="#ffab3c"/>
    <path id="Path_11667" data-name="Path 11667" d="M8.2,77.892V56.752a8.91,8.91,0,0,1,2.385-6.424,8.18,8.18,0,0,1,6.187-2.492,7.639,7.639,0,0,1,6.94,4.146,9.7,9.7,0,0,1,3.179-3.19,8.436,8.436,0,0,1,4.19-.956,7.489,7.489,0,0,1,6.058,2.492q2.106,2.493,2.106,7.176V77.892H30.521V58.814a5.055,5.055,0,0,0-.225-1.88.916.916,0,0,0-.913-.461q-1.29,0-1.289,2.191V77.892H19.371V58.814a4.853,4.853,0,0,0-.236-1.869.935.935,0,0,0-.924-.472q-1.29,0-1.289,2.341V77.892Z" fill="#fff"/>
    <path id="Path_11668" data-name="Path 11668" d="M57.364,63.176V70.91H54.85v6.982H46.128V59.244q0-5.414,2.954-8.411t8.3-3q5.157,0,7.627,2.718t2.471,8.39V77.892H58.76V59.524a4.926,4.926,0,0,0-.408-2.385,1.575,1.575,0,0,0-1.461-.666q-2.04,0-2.041,3.051v3.652Z" fill="#fff"/>
    <path id="Path_11669" data-name="Path 11669" d="M95.163,48.566,87.536,62.832l7.885,15.06H86.247l-3.609-7.111-3.051,7.111H70.563L78.62,63.068l-7.627-14.5h9.088l3.416,6.66,2.75-6.66Z" fill="#fff"/>
    <rect id="Rectangle_6296" data-name="Rectangle 6296" width="8.723" height="29.326" transform="translate(99.082 48.566)" fill="#fff"/>
    <path id="Path_11670" data-name="Path 11670" d="M115.268,77.892V56.752a8.91,8.91,0,0,1,2.385-6.424,8.18,8.18,0,0,1,6.187-2.492,7.639,7.639,0,0,1,6.94,4.146,9.69,9.69,0,0,1,3.18-3.19,8.429,8.429,0,0,1,4.189-.956,7.492,7.492,0,0,1,6.059,2.492q2.1,2.493,2.105,7.176V77.892h-8.722V58.814a5.027,5.027,0,0,0-.226-1.88.915.915,0,0,0-.913-.461q-1.288,0-1.289,2.191V77.892H126.44V58.814a4.853,4.853,0,0,0-.236-1.869.935.935,0,0,0-.924-.472q-1.29,0-1.289,2.341V77.892Z" fill="#fff"/>
    <path id="Path_11671" data-name="Path 11671" d="M14.988,94.057H13.211l-.3-2.033H10.746l-.3,2.033H8.825l1.793-11.2h2.577ZM10.97,90.5h1.7l-.833-5.666H11.8Z" fill="#fff"/>
    <path id="Path_11672" data-name="Path 11672" d="M24.987,89.879v1.488c0,1.793-.9,2.818-2.625,2.818s-2.625-1.025-2.625-2.818V85.541c0-1.793.9-2.817,2.625-2.817s2.625,1.024,2.625,2.817V86.63H23.322v-1.2c0-.8-.352-1.105-.912-1.105s-.912.305-.912,1.105V91.48c0,.8.352,1.088.912,1.088s.912-.288.912-1.088v-1.6Z" fill="#fff"/>
    <path id="Path_11673" data-name="Path 11673" d="M26.713,85.542a2.488,2.488,0,0,1,2.674-2.818,2.487,2.487,0,0,1,2.672,2.818v5.826a2.486,2.486,0,0,1-2.672,2.817,2.487,2.487,0,0,1-2.674-2.817Zm1.761,5.938c0,.8.352,1.1.913,1.1s.912-.3.912-1.1V85.429c0-.8-.352-1.1-.912-1.1s-.913.3-.913,1.1Z" fill="#fff"/>
    <path id="Path_11674" data-name="Path 11674" d="M37.707,90.808h.032l1.184-7.955h2.449v11.2H39.707V86.022h-.031l-1.185,8.035H36.827l-1.281-7.923h-.032v7.923H33.977v-11.2h2.449Z" fill="#fff"/>
    <path id="Path_11675" data-name="Path 11675" d="M48.667,85.622v1.457c0,1.792-.865,2.769-2.625,2.769h-.833v4.21H43.448V82.853h2.594c1.76,0,2.625.976,2.625,2.769m-3.458-1.168v3.793h.833c.56,0,.864-.256.864-1.057V85.51c0-.8-.3-1.056-.864-1.056Z" fill="#fff"/>
    <path id="Path_11676" data-name="Path 11676" d="M50.28,82.853h1.761v9.6h2.9v1.6H50.28Z" fill="#fff"/>
    <path id="Path_11677" data-name="Path 11677" d="M58.265,87.575h2.417v1.6H58.265v3.281h3.042v1.6H56.5v-11.2h4.8v1.6H58.265Z" fill="#fff"/>
    <path id="Path_11678" data-name="Path 11678" d="M62.68,82.853h5.442v1.6h-1.84v9.6H64.521v-9.6H62.68Z" fill="#fff"/>
    <path id="Path_11679" data-name="Path 11679" d="M71.449,87.575h2.417v1.6H71.449v3.281h3.042v1.6h-4.8v-11.2h4.8v1.6H71.449Z" fill="#fff"/>
    <path id="Path_11680" data-name="Path 11680" d="M82.025,82.724c1.712,0,2.593,1.024,2.593,2.817v.353H82.953v-.465c0-.8-.32-1.1-.88-1.1s-.881.3-.881,1.1c0,.816.353,1.425,1.5,2.434,1.473,1.3,1.937,2.224,1.937,3.5,0,1.793-.9,2.817-2.625,2.817s-2.625-1.024-2.625-2.817V90.68h1.664v.8c0,.8.352,1.089.913,1.089s.912-.288.912-1.089c0-.817-.352-1.425-1.5-2.433-1.473-1.3-1.937-2.225-1.937-3.506,0-1.793.88-2.817,2.593-2.817" fill="#fff"/>
    <path id="Path_11681" data-name="Path 11681" d="M86.3,85.542a2.677,2.677,0,1,1,5.346,0v5.826a2.677,2.677,0,1,1-5.346,0Zm1.761,5.938c0,.8.352,1.1.913,1.1s.912-.3.912-1.1V85.429c0-.8-.352-1.1-.912-1.1s-.913.3-.913,1.1Z" fill="#fff"/>
    <path id="Path_11682" data-name="Path 11682" d="M93.576,82.853h1.761v9.6h2.9v1.6H93.576Z" fill="#fff"/>
    <path id="Path_11683" data-name="Path 11683" d="M101.48,82.853V91.5c0,.8.352,1.087.913,1.087s.912-.288.912-1.087V82.853h1.665v8.531c0,1.793-.9,2.818-2.626,2.818s-2.625-1.025-2.625-2.818V82.853Z" fill="#fff"/>
    <path id="Path_11684" data-name="Path 11684" d="M106.456,82.853H111.9v1.6h-1.84v9.6H108.3v-9.6h-1.841Z" fill="#fff"/>
    <rect id="Rectangle_6297" data-name="Rectangle 6297" width="1.761" height="11.204" transform="translate(113.463 82.853)" fill="#fff"/>
    <path id="Path_11685" data-name="Path 11685" d="M117.159,85.542a2.677,2.677,0,1,1,5.346,0v5.826a2.677,2.677,0,1,1-5.346,0Zm1.761,5.938c0,.8.352,1.1.913,1.1s.912-.3.912-1.1V85.429c0-.8-.352-1.1-.912-1.1s-.913.3-.913,1.1Z" fill="#fff"/>
    <path id="Path_11686" data-name="Path 11686" d="M126.04,85.942h-.032v8.115h-1.585v-11.2h2.209l1.778,6.706h.032V82.853h1.568v11.2H128.2Z" fill="#fff"/>
  </g>
</svg>
